<svg xmlns="http://www.w3.org/2000/svg" viewBox="0 0 544 154">
    <title>
        Content Guru Logo
    </title>
    <polygon
        fill="#15bbee"
        points="528.05 25.45 483.81 25.45 483.81 30.2 503.5 30.2 503.5 68.54 508.38 68.54 508.38 30.2 528.05 30.2 528.05 25.45"
    />
    <polygon
        fill="#15bbee"
        points="364.26 25.45 320.02 25.45 320.02 30.2 339.7 30.2 339.7 68.54 344.58 68.54 344.58 30.2 364.26 30.2 364.26 25.45"
    />
    <path
        fill="#15bbee"
        d="M471.93,68.53c0-1.62,0-41.33,0-41.33a2.14,2.14,0,0,0-2.32-1.78H431.47c-.61,0-1.27.2-1.56,1.49V68.43h4.66V30.15h32.36V68.53Z"
    />
    <path
        fill="#15bbee"
        d="M376.26,26.51l-.14.65V67s.13.63.13.64l.39.53.58.35.68.12H418v-4.9H380.69V49.4h16.52V44.75H380.69V30.41H418v-4.9H377.9l-.69.12-.58.35Z"
    />
    <path
        fill="#15bbee"
        d="M308.13,68.53c0-1.62,0-41.33,0-41.33a2.13,2.13,0,0,0-2.32-1.78H267.67c-.6,0-1.25.2-1.55,1.49V68.43h4.66V30.15h32.36V68.53Z"
    />
    <path
        fill="#15bbee"
        fill-rule="evenodd"
        d="M252.27,25.42H213.84c-.6,0-1.24.19-1.49,1.45V67.09a1.32,1.32,0,0,0,.49,1.08,1.86,1.86,0,0,0,1.23.46H252.4c.5,0,1.64,0,1.83-2.64l0-38.84C254,25.94,253.37,25.42,252.27,25.42ZM217,63.74V30.15h32.67V63.73H217Z"
    />
    <path
        fill="#15bbee"
        d="M159,68.17l.57.35.68.12h40.15v-4.9H163.18V30.15H195.8v4h4.7V26.53c-.4-1.07-.91-1.12-1.13-1.12H160.05c-.6,0-1.26.2-1.55,1.49V67l.14.65S159,68.16,159,68.17Z"
    />
    <path
        fill="#15bbee"
        d="M199.7,92.8V85.3H162a2.69,2.69,0,0,0-2.6,2.17l-.05.14v37.26c.07,3.12,1.66,3.67,2.6,3.71h34.55a3.26,3.26,0,0,0,2.19-.82,2.87,2.87,0,0,0,1-2.21v-18.8c0-2.17-1.15-3.42-3.16-3.42H177.61v7h14.52v10.58H166.79V92.8Z"
    />
    <path
        fill="#15bbee"
        d="M246,85.3V121l-25.5-.07c0-1.63,0-35.6,0-35.6h-7.4l0,40.19c.61,2.62,2.2,3,3.1,3h33.92a3.32,3.32,0,0,0,3.38-3l0-40.23H246Z"
    />
    <path
        fill="#15bbee"
        d="M307.27,87.56a3,3,0,0,0-2.64-2.27h-34.7a3.07,3.07,0,0,0-3,2.87l0,40.32h7.4V92.8h25.46c0,1,0,10.36,0,10.36h7.48V87.7Z"
    />
    <path
        fill="#15bbee"
        d="M354.83,85.3V121l-25.5-.07c0-1.63,0-35.6,0-35.6H322l0,40.19c.6,2.62,2.2,3,3.1,3h33.91a3.31,3.31,0,0,0,3.38-3l0-40.23Z"
    />
    <path fill="#15bbee" d="M141.94,71.86A63.08,63.08,0,0,0,83.8,14V32.34a44.82,44.82,0,0,1,39.81,39.52Z" />
    <path fill="#15bbee" d="M74.2,14A63.09,63.09,0,0,0,16.06,71.86H34.39A44.82,44.82,0,0,1,74.2,32.34Z" />
    <path fill="#15bbee" d="M16,81.47A63.08,63.08,0,0,0,74.2,140V121.66A44.8,44.8,0,0,1,34.33,81.47Z" />
    <path fill="#15bbee" d="M83.8,140A63.09,63.09,0,0,0,142,81.47H123.68A44.81,44.81,0,0,1,83.8,121.66Z" />
</svg>
