<svg xmlns="http://www.w3.org/2000/svg" viewBox="0 2 344 173">
    <title>
        Storm Logo
    </title>
    <path
        fill="#ffffff"
        d="M329.22 98.44c-1.3-.95-1.39-2.27-1.13-3.57.38-1.89.09-3.64-.45-5.46-.47-1.54-.66-3.17-1.02-4.92 1.61.8 2.93 1.39 4.18 2.08.26.14.43.59.5.92.09.4.02.83.02 1.35.87.12 1.68.26
	2.81.43-.33-.45-.5-.87-.64-.85-1.7.17-1.56-.97-1.49-2.03.02-.33.12-.64.14-.83-.61 0-1.28.19-1.77-.05-.99-.45-1.91-1.09-2.81-1.75-.24-.17-.35-.71-.31-1.04.33-1.94.47-3.8-.09-5.74-.33-1.16-.61-2.46-.47-3.64.26-2.1.31-4.16-.47-6.14-.52-1.32-1.21-2.58-1.82-3.88.09-.07.17-.12.26-.19.26.33.52.69.78
	1.02.19.26.35.57.59.73 1.02.71 2.34 1.02 2.98 2.22.02.07.12.09.21.17.19-.12.4-.24.8-.47-.99-.92-1.89-1.8-2.86-2.72-.17.05-.52.09-.9.17-.26-.76-.5-1.44-.69-1.94-.5-.07-.87-.14-1.25-.19-1.25-.19-1.58-1.25-1.91-2.2-.87-2.48-.95-5.06-.97-7.66-.02-2.41-.52-4.54-2.98-5.79-1.32-.69-2.03-1.96-2.24-3.54-.26-1.98-1.02-3.8-2.13-5.51-1.06-1.63-1.91-3.4-2.74-5.18-.57-1.21-.26-2.39.5-3.47.85-1.21 1.7-2.39
	2.43-3.64.92-1.61 1.58-3.36 2.6-4.87 2.74-4.14 5.72-8.08 8.39-12.26.62-.97 1.22-1.95 1.83-2.93-2.06.18-4.13.31-6.2.38-3.58 5.61-7.18 11.22-10.82 16.79-1.98 3.07-4.56 5.48-8.34 6.33-2.08.47-4.09 1.3-6.12
	1.94-1.16.38-2.32.43-3.54.07-2.22-.61-3.88-2.13-5.74-3.33-1.65-1.06-3.19-1.04-4.66.31.85.78 1.73 1.58 2.58 2.36-.05.09-.09.17-.14.26-2.69-.24-5.36-.47-8.06-.71 3.54.83 7.09 1.65 10.75
	1.75.07-.12.17-.26.24-.38-1.16-1.06-2.29-2.13-3.43-3.19.07-.09.14-.21.21-.31.54.21 1.16.33 1.63.64 1.58 1.06 3.12 2.2 4.54 3.21-2.08.61-4.35 1.39-6.69
	1.91-1.56.35-3.24.59-4.82.43-3.76-.43-7.47-1.32-11.3-1.13-1.39.07-2.84-.28-3.73-1.44-1.77-2.32-3.88-4.04-6.81-4.23.02-.61.14-1.13.07-1.61-.05-.26-.43-.45-.64-.66-.17.19-.38.35-.47.57-.28.69-.52 1.37-.87
	2.32.28.14.69.57 1.13.59 3.28.26 5.34 2.43 7.4 4.54-3.85 1.18-7.61 2.32-11.37 3.45.19.69.38 1.11.43 1.56.05.26-.09.73-.24.78-1.18.31-2.39.54-3.59.78-1.42.28-2.2-.61-2.69-1.32-1.16.73-2.17 1.58-3.33
	2.06-2.43.97-5.01.57-7.54.33-1.42-.14-2.81-.35-4.56-.57.38.28.45.38.54.4 2.29.43 4.61.78 6.9 1.25 2.15.45 4.25.19 6.17-.8 1.04-.54 1.87-1.02 2.79-.38-2.34 2.13-4.77 4.32-7.21 6.52.09.09.17.17.24.26
	2.58-1.87 4.94-4.16 7.75-5.51 2.84-1.35 6.1-1.73 9.26-2.55-1.02-.52-2.32-.52-3.05-1.94 3.85-1.11 7.56-2.15 11.25-3.21.07.14.12.26.17.38-1.28 1.56-2.55 3.12-3.97 4.84 1.11-.47 2.08-.85
	3.02-1.28.12-.07.21-.21.28-.35.4-.73.66-1.56 1.18-2.17.45-.52 1.23-1.13 1.82-1.11 3.24.12 6.5.52 9.74.64 2.29.09 4.63.12 6.9-.21 2.58-.38 5.01-1.44 7.73-1.23 1.16.09 2.39-.21 3.5-.59 1.84-.61
	3.59-1.49 5.41-2.15 1.3-.5 2.72-.73 4.02-1.25.78-.31 1.44-.92 2.46-1.61-.19 1.25-.31 2.17-.5 3.07-.5 2.48-1.04 4.94-1.51 7.42-.33 1.72-.99 2.58-2.36 2.67-.78.07-1.63.21-2.34-.02-1.42-.47-1.98.14-2.15
	1.06-1.58.33-2.98.69-4.4.95-2.55.47-5.13 1.16-7.7 1.25-3.57.12-7.09-.9-10.7-.66-3.07.19-6.17.19-9.24.24-.83 0-1.51.05-1.35 1.39-1.89-1.16-3.59-2.17-5.29-3.19-.02.24.02.4.14.47 1.37.87 2.81 1.65 3.57
	3.21.07.12.33.24.47.21.8-.14 1.87.52 2.34-.78.09-.24.69-.35 1.04-.38 2.53-.09 5.06-.19 7.59-.24.45 0 .9.17 1.37.24-.61 2.15-1.51 2.74-3.66 3.1-1.37.24-2.79.66-3.92 1.42-1.23.8-2.03 2.24-3.24 3.12-.97.71-2.29
	1.54-3.38 1.42-2.67-.26-5.13.33-7.61.95-3.92.97-7.77 2.36-11.91 1.98-1.58-.14-3.02-.47-4.11-1.77-.92-1.11-1.87-2.27-2.98-3.19-1.44-1.21-3.02-2.22-4.56-3.31-.07.09-.17.19-.24.28 2.39 2.53 5.65 4.37 6.88
	8.06-1.51-.09-2.81-.17-4.11-.24 7.21 2.53 14.44 1.56 21.72-.19-.4 2.03.24 2.95 2.36 3.78-.59 1.98-2.74 3.31-2.29 5.77 1.13-2.17 2.17-4.4 4.14-5.93-.97-.45-1.98-.85-2.91-1.42-.35-.21-.57-.85-.64-1.32-.02-.21.45-.64.76-.71
	1.58-.38 3.21-.69 4.82-.99.78-.14 1.58-.28 2.36-.43 1.96-.35 3.1-1.87 4.32-3.19 1.37-1.49 3-2.34 4.96-2.74 2.22-.47 4.25-1.21 4.92-3.76.05-.24.73-.45 1.11-.43 1.89.19 3.73.54 5.62.66 3.43.19
	6.81-.07 10.07-1.28.99-.35 2.08-.5 3.12-.73.05.12.07.24.12.35-.38.43-1.16.97-1.09 1.28.31 1.16-.35 1.06-1.09 1.13-.54.07-1.16.21-1.63.5-.66.4-1.47.9-1.73 1.54-.35.85-.47 1.94-.28 2.84.21.97-.21 1.44-.8
	1.8-1.94 1.23-3.62 3.14-6.31 2.5-.33-.07-.73.17-1.11.21-1.82.28-2.86 1.77-2.46 3.8 1.09-1.77 2.46-2.84 4.54-2.88 2.08-.05 3.64.64 4.66 2.62-.4.35-.95.66-1.18 1.11-.33.61-.5 1.32-.61 2.01-.07.43.17.9.17
	1.35.05 1.65-.14 3.33.12 4.96.14.92-.02 1.28-.78 1.58-1.25.5-2.24 1.3-2.79 2.53-2.22-.87-4.42-1.82-6.64-2.6-2.03-.73-3.33-.14-4.49 1.63-.28.45-.9.76-1.44.99-1.16.5-2.39.85-3.52
	1.37-1.28.57-2.55 1.04-3.92.73-.97-.21-1.84-.73-2.76-1.13-2.2-.95-4.51-.73-6.78-.69-.9.02-1.54-.31-2.22-.78-.85-.59-1.7-1.32-2.65-1.56-1.63-.4-3.33-.57-5.01-.71-1.09-.09-1.75-.52-2.06-1.54-.14-.43-.31-.83-.45-1.23-.07
	0-.14.02-.21.05v2.17c-.26-.02-.52-.02-.76-.09-2.01-.64-3.97-1.35-6-1.91-1.16-.33-2.15-.73-2.86-1.73-.61-.87-1.23-1.84-2.06-2.48-2.03-1.58-4.16-3-6.29-4.47-.85-.61-1.77-1.13-2.67-1.7.07.45.28.71.54.95
	3.05 2.76 6.33 5.32 9.07 8.34 1.28 1.39 2.46 2.15 4.18 2.6 1.94.5 3.8 1.32 5.77 2.03-1.35 1.61-2.93 2.76-5.1 3.26.09-.52.14-.85.14-.85-2.67-1.09-5.25-2.08-7.75-3.17-3.76-1.63-7.63-1.96-11.67-1.54-1.63.17-3.52.19-4.54-1.56-1.11-1.89-2.86-2.98-4.61-4.09-.28-.17-.54-.31-.83-.45-.02.05-.02.07-.05.12
	2.29 2.46 4.56 4.89 6.64 7.11-.73.99-1.37 1.87-2.08 2.84-.28-.17-.73-.4-1.13-.66-1.16-.76-2.41-.97-3.76-.9-.8.02-1.68 0-2.41-.26-1.68-.59-3.31-1.42-5.13-1.11-2.27.38-4.49.99-6.73 1.39-1.7.31-3.4.57-5.13.64-1.63.07-3.28-.14-4.92-.17-.47 0-1.02.28-1.47.19-1.39-.31-2.79-.76-4.18-1.13-2.01-.54-4.02-1.06-6.05-1.58.26-.64.5-1.23.64-1.56-.69-.52-1.21-.9-1.68-1.32-.54-.47-1.02-1.02-1.54-1.51-.66-.59-1.39-1.13-2.01-1.77-1.04-1.09-.8-2.46.52-3.17.4-.21.87-.38 1.23-.64.33-.24.54-.59.8-.9-.09-.07-.17-.14-.24-.21-1.16.61-2.32 1.25-3.78 2.03 1.73-4.18-.43-7.37-1.77-10.73.12.97.38 1.91.54 2.88.33 1.8.76 3.62.87 5.43.12 2.01-1.25 2.95-3.24 2.46-.45-.12-.9-.19-1.35-.33-.43-.12-.83-.31-1.23-.45.07.28.17.4.31.45 3.99 1.18 6.4 4.4 9.19 7.11.97.97.87 1.7-.17 2.55-.33.28-.61.61-.92.95 1.02 0 1.96-.17 2.79.05 1.65.4 1.96 1.73.66 2.74-.61.47-1.61.69-2.41.61-1.28-.12-2.53-.54-3.8-.85.71.66 1.54 1.04 2.13 1.65.4.4.78 1.23.61 1.68s-.97.87-1.54.92c-1.04.09-2.1 0-3.12-.24-1.63-.35-3.05-1.04-3.38-2.98-.21-1.23-1.16-1.58-2.29-1.68-2.27-.19-4.32.54-6.43 1.21-.45.14-1.09.07-1.49-.17-1.06-.61-1.98-1.44-3.05-2.03-2.27-1.28-4.47-2.74-7.11-3.14-2.46-.38-4.8-.09-6.4 2.01-2.13 2.81-4.68 5.15-7.11 7.07-.8-.64-1.47-1.25-2.22-1.75-1.61-1.04-3.4-.69-5.1-.47-1.84.24-1.94.24-2.46-1.54-.35-1.18-.71-2.53-1.49-3.4-1.3-1.44-1.61-2.86-.97-4.63.35-.95.09-1.77-.66-2.53-1.91-1.89-4.16-3.17-6.69-3.95-1.84-.57-3.73-.52-5.48.52-.64.38-1.32.59-2.01.87-2.72 1.09-5.46 2.34-8.44 2.01-3.12-.35-6.19-1.04-9.26-1.73-1.75-.4-3.43-1.06-5.13-1.61-.05.05-.12.09-.17.14.85.78 1.7 1.56 2.43 2.24-1.06.33-2.13.71-3.21 1.02-.38.09-.83.21-1.18.09-1.3-.4-2.58-.95-3.9-1.32-2.22-.64-4.66-.19-6.59-2.15-1.35-1.35-2.98-.71-4.02.95-.21.35-.35.8-.66 1.06-.4.35-.92.71-1.44.78-.21.02-.61-.54-.83-.92-.26-.5-.43-1.06-.64-1.58-.05 0-.12.02-.17.05.12 1.37.26 2.74.38 4.14 1.47-.07 2.69-.35 3.4-1.68.24-.43.45-.97.83-1.23.54-.38 1.35-.92 1.8-.76.85.31 1.68.97 2.22 1.7.19.26.07.99.64.99.64 0 1.32-.21 1.96-.4.33-.09.61-.47.9-.45 2.39.19 4.3 1.47 6.1 2.95.14.14.17.5.14.73-.12.99-.31 1.98-.38 2.98-.14 2.13-1.18 3.38-3.24 3.92-.99.26-1.94.64-2.98.99.19 1.35.35 2.55.54 3.85-2.13-1.13-3.88-2.41-5.13-4.4-.66-1.06-1.68-2.01-3.05-2.17-.92-.12-1.89-.24-2.76-.05-.35.07-.45 1.04-.76 1.54-.24.35-.57.8-.95.92-.85.26-1.82.61-2.62.45-2.72-.59-5.41-1.35-8.08-2.13-2.81-.83-5.46-.5-7.94 1.09-1.63 1.04-3.19 2.15-4.82 3.14-1.61.97-3.31 1.37-5.08.28-.85-.52-1.77-.99-2.69-1.35-1.16-.43-2.36-.69-3.54-1.04-.05.09-.07.21-.09.31 1.06.47 2.15.9 3.19 1.44 1.04.54 2.06 1.16 3.07 1.8.31.19.66.52.71.83.14.99-1.23 2.67-2.22 2.95-.69.19-1.56.26-2.01.71-.8.83-1.35 1.89-1.96 2.81-2.43 0-5.06.02-7.66 0-1.32-.02-2.5.24-3.5 1.18v.47c.95-.76 2.03-1.09 3.24-.92 2.34.33 4.63.69 6.95 1.09 1.37.24 2.32-.43 2.81-1.68.31-.73.9-1.58 1.58-1.94 1.58-.8 2.74-2.01 3.97-3.19 1.02-.97 2.08-1.91 3.21-2.74 1.3-.95 2.72-1.7 4.04-2.62 1.63-1.13 3.43-1.84 5.41-1.56 1.65.26 3.28.73 4.89 1.21 3.5 1.06 7.07 1.49 10.7 1.11 1.7-.17 1.87-.43 1.44-2.15 0-.02.05-.07.09-.14 1.09.21 1.96.69 2.5 1.73.43.85.8 1.77 1.39 2.5.57.71 1.3 1.37 2.1 1.82 1.28.71 2.29 1.11 2.08 3.05-.09.87-.21 1.75-.38 2.62-.21 1.02-.12 2.15.31 2.67.07-.02.17-.07.19-.12 1.13-3.5 2.29-6.97 3.4-10.47.38-1.25.64-2.5 1.75-3.43 1.09-.9 2.15-1.54 3.59-1.18.07.02.14-.05.31-.12v-1.11c0-2.32.78-4.28 2.53-5.86 1.7-1.56 4.32-1.32 5.43.61.52.95.99 1.91 1.65 3.19-.14-1.51-.26-2.69-.4-4.06 2.01-.05 4.09-.47 6-.05 2.1.45 3.92.19 5.84-.52.99-.35 2.03-.57 3.26-.9-.92 2.48-.24 4.49.85 6.43.05-.31.05-.61-.02-.9-.45-1.68-.28-3.28.35-4.87.64-1.61 2.55-2.5 4.18-1.89 1.21.45 2.41.99 3.57 1.58 1.54.78 2.15 1.91 1.77 3.54-.35 1.58-.19 2.86 1.04 4.02.45.4.66 1.11.9 1.7.73 1.82 1.42 3.69.83 6.12 2.03-.43 3.8-.76 5.53-1.18 2.41-.57 4.54.87 4.4 3.17-.05.95-.28 1.96-.76 2.74-2.08 3.36-3.73 6.88-4.3 10.82l-.57 4.47c.12 0 .21.02.31.05.38-1.35.76-2.67 1.11-4.02.97-3.85 3.02-7.21 4.87-10.66.66-1.25 1.54-2.43 2.5-3.45 1.72-1.8 3.62-3.45 5.39-5.2.97-.95
	1.84-2.01 2.79-2.98 1.72-1.72 3.97-2.13 6.14-.95 1.56.85 3.1 1.75 4.47 2.84 2.79 2.2 5.81 2.36 9.07 1.47.92-.26 1.91-.35 3-.54-.33 1.63.52 2.46 1.44 3.1 2.06 1.44 4.49 1.8 6.9 1.91 1.28.07 2.5-.43 3.45-1.54.95-1.11 2.03-2.13 3.21-2.95 1.11-.78 2.01-1.58 2.22-3.1 1.82.64 3.54 1.25 5.03 1.77 0 1.18.02 2.17 0 3.17-.05 1.7-.43 3.28-1.82 4.44-1.49 1.23-3 2.43-4.42 3.76-.43.4-.85 1.18-.76 1.7.33 2.03.85 4.04 1.3 6.07.14-.02.28-.05.43-.07-.12-1.58-.17-3.19-.43-4.77-.26-1.54-.12-2.29 1.06-3.12 1.06-.76 2.17-1.42 3.21-2.22.66-.52 1.42-1.11 1.8-1.84.4-.8.45-1.77.54-2.69.33-3.17 2.27-4.84 5.1-4.37 2.98.5 5.93.26 8.86-.4 2.17-.47 4.35-.97 6.55-1.21 1.77-.17 2.58 1.28 1.8 2.88-.57 1.18-1.25 2.32-1.75 3.52-.5 1.25-.83 2.58-1.23 3.88h.12c1.68-2.65 3.36-5.29 5.13-8.11.24.54.38.83.61 1.35.47-.52.8-.97 1.18-1.35 1.25-1.28 1.63-1.28 3.19-.33.8.5 1.7.83 2.58 1.21.87.38 1.82.61 2.62 1.09 1.18.66 2.24 1.51 3.36 2.27-.09-.52-.35-.85-.59-1.18-.69-.92-1.44-1.82-2.01-2.81-1.02-1.77-.69-2.62 1.37-2.43.05 0 .12-.07.19-.12.14-1.21.19-1.28 1.44-1.25 1.58.02 3.19.19 4.77.21 3.62.05 6.24
	2.46 9.4 3.78-1.35.85-2.53 1.58-3.71 2.34.31.21.57.24.8.21 1.7-.17 3.38-.33 5.08-.47 2.72-.21 5.08-1.18 7.23-2.93 2.67-2.15 5.06-2.62 8.15-.83.97.57 1.21 1.28.54 2.17-.66.9-1.54 1.65-2.24 2.53-1.35 1.63-2.1 3.57-2.84 5.86.43-.28.61-.35.71-.5.97-1.49 2.08-2.88 2.88-4.44 1.28-2.5 3.36-3.4 6-3.52 2.43-.12 4.75.43 7.02 1.21 1.94.66 3.9 1.06 5.88.38 1.56-.52 3.02-1.28 4.56-1.87 1.23-.45 2.22-.09 2.67.87.57 1.18-.45 1.73-1.13 2.2-2.03 1.37-2.24 2.84-.45 4.89-.09-.57-.14-.99-.24-1.39-.35-1.49.12-2.24 1.61-2.53.24-.05.54-.21.64-.4.43-.87.78-1.8 1.16-2.72-.31-.4-.78-.8-.9-1.28-.14-.57-.12-1.3.14-1.82.14-.26.97-.45 1.35-.31 1.75.64 3.5 1.3 5.2 2.1 2.86 1.35 5.95.64 8.91 1.16 1.77.31 3.52.57 4.73 2.1.78.97 1.32 2.22 2.29 2.86 1.28.87 1.89 2.17 2.86 3.24.64.69 1.13 1.39 2.17 1.54.45.07.9.45 1.28.73.66.52 1.3 1.09 2.03 1.68-.31.71-.73 1.63-1.13 2.55.12.07.24.12.35.19.73-.9 1.47-1.8 2.29-2.79 1.11 2.01 2.55 3.31 4.84 3.14.09.45.24.9.26 1.35.09 1.87.45 3.76.19 5.58-.26 1.77.31 2.98 1.32 4.09-.5.54-.97 1.09-1.49 1.7 1.44-.14 2.72-.4 3.54-1.84-2.17-.97-2.39-2.72-2.2-4.94.19-2.36-.26-4.77-.45-7.25-.33 0-.61-.07-.85 0-1.87.64-2.76-.57-3.64-1.84-.47-.71-.09-1.8.73-1.94 1.02-.19 2.03-.26 3.1-.38-.17-2.58 2.39-1.84 3.69-2.93h-2.29c-1.84 0-1.96.09-2.43 1.73-1.44.24-2.81.45-4.18.66.02.64.05 1.06.09 1.77-.99-.4-2.03-.52-2.58-1.09-.64-.69-1.35-1.04-2.15-1.37-.52-.24-1.02-.64-1.39-1.09-.69-.83-1.11-1.94-1.94-2.58-.76-.57-.85-1.13-.92-1.94-.02-.45-.33-1.04-.71-1.28-3.02-1.91-6.33-2.98-9.95-2.84-.95.05-1.18-.66-1.37-1.25-.07-.24.45-.8.83-.99 1.35-.64 2.74-1.21 4.23-1.84-.57-.71-1.09-1.35-1.54-2.03-.17-.26-.33-.66-.24-.92.26-.71 2.98-2.1 3.76-2.03.17.52.33 1.02.47 1.54.12.47.43 1.04.28 1.42-.43 1.04.26 1.37.95 1.58.61.17 1.35.28 1.91.12 1.51-.45 2.93-.43 4.37.28.71.33 1.54.43 2.48.69-2.24-2.98-5.18-2.58-8.06-2.15-.69-2.06-1.32-3.99-1.96-5.93-.52.31-1.23.97-1.44.83-.66-.4-1.3-1.04-1.58-1.75-.12-.33.5-1.13.97-1.47.66-.47 1.49-.73 2.34-1.13-.99-1.23-1.94-2.34-2.91-3.54 1.32-.8 2.65-1.61 3.99-2.41-.9-1.13-1.63-2.2-1.11-3.64.35-.09.73-.17 1.11-.24 1.25-.21 2.5-.52 3.76-.54 2.06-.02 2.86.97 2.84 2.93-.02.8.09 1.84.59 2.39 1.61 1.77 3.4 3.36 5.18 4.99.14.12.57.07.78-.05.14-.05.19-.5.09-.64-.31-.43-.69-.83-1.06-1.18-1.16-1.06-2.41-2.01-3.43-3.17-.52-.61-.99-1.58-.92-2.34.17-1.77-.4-3.1-2.15-3.66-.85-.26-1.39-.8-1.42-1.61 0-.4.47-.85.87-1.49 0-.35-.76-1.09.31-1.61 2.29-1.11 4.54-2.27 6.83-3.43-.57-1.58-1.42-3.02-.26-4.82-.21 2.17.95 3.33 2.46 4.23.21.12.45.17.64.28 1.63.97 2.67 2.88 2.24 4.47-.43 1.54-.97 3.05-1.56 4.54-.45 1.16-.66 2.93-.24 4.49.95-2.6 1.8-4.96 2.65-7.35.5.26.92.45 1.32.66 2.81 1.54 3.21 3.05 3.02 5.29-.17 1.8-.54 3.62-.95 5.39-.17.76-.5 1.58-.99 2.13-.92 1.02-1.23 2.13-1.35 3.45-.14 1.56-.45 3.1-.69 4.66-.05.35-.14.71-.21 1.06.33-.26.69-.52 1.02-.83.09-.07.12-.28.14-.43.17-1.35.26-2.69.5-4.02.19-.99.47-2.01.9-2.91.57-1.18 1.3-2.27 1.82-3.12.33.87.66 2.08 1.21 3.21 1.04 2.15 2.22 4.21 3.26 6.36.9 1.91 1.61 3.8.59 6-.33.71-.17 2.01.28 2.69 1.06 1.61.85 3.17.43 4.84-.69 2.62-.61 5.25.07 7.89.59 2.34 1.91 4.77.33 7.21-.61.97-.92 2.41-2.53 2.48.31.9-.21 1.25-.9 1.65-.5.28-1.18.87-1.16 1.32.09 2.1.38 4.18.59 6.29.14-.02.26-.02.38-.05 0-1.49.12-3-.05-4.47-.17-1.42.05-1.98 1.39-2.58.38-.17.61-.66.92-1.02.09-.12.14-.26.26-.33.4-.31.8-.59 1.25-.92.31.24.76.73 1.3.97 1.56.66 2.2 1.91 2.6 3.45.4 1.49.78 2.98 1.42 4.35.47 1.04 1.3 1.96 2.91 1.98-1.65-1.49-2.2-3.24-2.48-5.15-.21-2-.8-4.06-2.67-5.4z"
    />
    <path
        fill="#ffffff"
        d="M141.13 153.07c-.92-.17-1.84-.33-2.79-.47-5.69-.85-10.68-3.14-14.63-7.42-3.28-3.57-5.22-7.82-6.1-12.57-.38-2.03-.64-4.14-.69-6.19-.12-3.8-.17-7.61 0-11.39.21-5.32 1.47-10.4 4.4-14.96 3.5-5.48 8.55-8.74 14.79-10.18 2.08-.47 4.28-.54 6.43-.73 4.47-.38 8.81.24 13 1.89 4.8 1.89 8.63 4.99 11.37 9.4 2.08 3.36 3.1 7.07 3.83 10.89.21 1.13.24 2.32.26 3.47.02 4.11.09 8.22 0 12.34-.14 6.4-1.96 12.31-6.07 17.27-3.59 4.32-8.34 6.88-13.87 7.94-1.35.26-2.67.47-4.02.71h-5.91zM155 121.22c.07 0 .14 0 .21-.02-.24-3.17-.26-6.38-.73-9.5-.43-2.84-1.75-5.34-4.21-7.04-2.79-1.94-5.88-2.32-9.15-1.54-2.55.61-4.49 1.98-5.93 4.21-1.58 2.5-2.13 5.27-2.27 8.11-.14 3.36-.02 6.73-.05 10.09 0 2.41.33 4.77 1.21 7.02 1.16 3 3.1 5.39 6.36 6.17 1.75.4 3.62.57 5.39.45 2.17-.17 4.21-1.13 5.67-2.76 2.46-2.69 3.36-6.07 3.45-9.64.09-1.87.05-3.71.05-5.55zM39.33 153.07c-.43-.07-.87-.21-1.3-.24-4.92-.17-9.76-.8-14.53-1.94-1.84-.43-2.74-1.7-2.74-3.62v-5.41c0-2.29 1.44-3.5 3.69-3.14 1.06.17 2.13.38 3.19.45 2.95.19 5.88.35 8.84.47 2.48.12 4.99.26 7.47.19 1.21-.02 2.39-.45 3.57-.76 2.36-.64 2.5-4.7 1.02-5.84-1.77-1.35-3.59-2.65-5.46-3.83-4.75-2.95-9.62-5.74-14.34-8.74-4.21-2.69-7.14-6.47-8.11-11.44-1.04-5.34-.21-10.42 3.47-14.63 1.94-2.2 4.56-3.5 7.37-4.32 2.86-.85 5.79-1.25 8.79-1.21 2.74.05 5.53-.24 8.25.07 4.54.5 9.03 1.32 13.54 2.08 1.21.19 2.15 1.49 2.17 2.76.02 2.27.02 4.54 0 6.81-.02 1.61-1.16 2.74-2.74 2.6-2.53-.21-5.03-.61-7.56-.9a51.37 51.37 0 0 0-3.71-.26c-2.58-.09-5.15-.31-7.7-.19-1.65.07-3.33.52-4.87 1.11s-1.94 3.02-.64 4.06c1.77 1.39 3.69 2.6 5.62 3.8 4.82 2.98 9.74 5.84 14.53 8.86 2.88 1.82 5.29 4.18 6.85 7.25 1.04 2.01 1.61 4.21 1.7 6.52.09 3.12-.14 6.17-1.54 9.03-2.01 4.14-5.34 6.81-9.55 8.44-2.48.97-5.06 1.56-7.73 1.68-.17 0-.31.14-.47.24-2.38.05-4.75.05-7.08.05zm58.06 0c-1.11-.17-2.24-.28-3.36-.47-2.91-.47-5.62-1.37-7.66-3.64-1.58-1.75-2.41-3.92-2.81-6.19-.38-2.13-.69-4.28-.71-6.43-.07-11.01-.02-22.02-.02-33.01v-1.51c-2.1-.33-4.16-.64-6.19-.95-1.39-.21-2.81-.38-4.18-.71-1.51-.38-2.08-1.25-2.08-2.79 0-1.61-.02-3.21 0-4.82.02-1.73 1.04-2.72 2.74-2.72h9.71c0-2.41.09-4.73-.02-7.02-.17-3.38 1.63-3.92 3.95-4.28 3-.47 5.98-.95 8.96-1.51 1.82-.35 3.31.73 3.31 2.65.02 3.33 0 6.66 0 10.18h9.38c1.61 0 2.6 1.02 2.62 2.62v6.81c0 1.49-1.06 2.55-2.55 2.55h-9.43v35.02c0 3.24.47 3.73 3.73 3.76 2.01.02 3.99 0 6 0 1.77 0 2.72.92 2.72 2.67 0 1.96-.05 3.92.02 5.88.07 2.2-1.47 3.02-2.93 3.19-1.54.19-3.07.33-4.61.5-.09 0-.17.14-.24.21-2.12.01-4.23.01-6.35.01zm141.31-59.6c1.84-.87 3.54-1.73 5.29-2.5 2.67-1.21 5.46-1.75 8.39-1.87 3.21-.14 6.4-.07 9.38 1.23 1.84.8 3.52 1.96 5.51 3.07 2.91-1.47 6.26-2.98 9.92-3.64 1.56-.28 3.12-.54 4.68-.61 1.96-.09 3.95-.14 5.91 0 4.04.28 7.82 1.51 10.73 4.44 2.55 2.6 3.92 5.91 4.63 9.48.64 3.14.71 6.31.71 9.5-.02 12.22 0 24.46 0 36.67 0 1.96-.9 2.86-2.84 2.88H290.9c-1.87 0-2.81-.95-2.81-2.79 0-12.1.02-24.22-.02-36.32 0-2.1-.31-4.23-.69-6.31-.45-2.46-1.96-3.71-4.44-3.95-3.88-.38-7.54.5-11.06 2.03-.24.09-.45.52-.45.78.02 1.11.19 2.24.21 3.36.02 13.35-.02 26.73.05 40.08 0 1.77-1.3 3.21-3.17 3.14-3.24-.12-6.5-.02-9.76-.02-1.84 0-3.07-1.28-3.1-3.14v-15.64c0-7.63.02-15.29-.02-22.92 0-1.37-.17-2.79-.5-4.11-.61-2.41-1.65-3.19-4.58-3.57-3.54-.45-6.57 1.06-9.66 2.41-1.13.5-1.51 1.13-1.51 2.41.07 13.68.05 27.34.05 41.02 0 1.13-.24 2.17-1.16 2.88-.43.33-1.02.59-1.56.61-3.52.05-7.04.05-10.59.02-1.54 0-2.69-1.16-2.69-2.72v-56.9c0-1.7 1.06-2.69 2.79-2.69h9.4c2.27 0 3.05.8 3.1 3.1-.03.19-.03.36-.03.59zm-41.07-.33c1.98-.9 3.97-1.91 6.05-2.69 2.34-.85 4.8-1.39 7.35-1.32.76.02 1.51-.09 2.24.02 1.39.24 2.15 1.23 2.17 2.69.02 2.62.02 5.25 0 7.87 0 1.7-1.13 2.81-2.86 2.79-4.8-.05-9.26 1.21-13.59 3.17-.73.33-.97.73-.97 1.56.02 13.82 0 27.65.05 41.5 0 1.91-1.04 3.57-3.45 3.45-3.1-.17-6.19-.17-9.29 0-2.03.12-3.33-1.61-3.31-3.38.07-8.06.02-16.14.02-24.22 0-10.54.05-21.08-.02-31.62-.02-1.87 1.35-3.24 3.14-3.17 2.88.12 5.81.17 8.7 0 2.37-.14 3.72 1.2 3.77 3.35zm117.18 32.8c-4.68 0-8.46-3.78-8.46-8.46s3.78-8.46 8.46-8.46 8.48 3.78 8.48 8.46-3.8 8.46-8.48 8.46zm0-15.48c-3.88 0-6.99 3.17-6.99 7.04 0 3.88 3.14 6.99 6.99 6.99 3.88 0 7.04-3.14 7.04-6.99 0-3.89-3.17-7.04-7.04-7.04zm3.76 12.1h-1.56c-.14 0-.28-.12-.33-.24l-2.15-3.62c-.02-.07-.21-.14-.31-.14h-.94v3.62c0 .19-.17.4-.38.4h-1.42c-.21 0-.38-.21-.38-.4v-9.12c0-.54.19-.78.69-.83.47-.07 1.82-.12 2.58-.12 2.62 0 4.18.8 4.18 3.24v.19c0 1.51-.78 2.32-1.91 2.69l2.22 3.78c.02.07.07.14.07.24-.03.12-.13.31-.36.31zm-2.11-7.25c0-1.02-.59-1.39-1.96-1.39h-1.33v2.95c.21 0 1.16.02 1.32.02 1.42 0 1.96-.47 1.96-1.42v-.16z"
    />
</svg>
