<svg xmlns="http://www.w3.org/2000/svg" viewBox="0 -1 32 34">
    <path
        d="M29,31.25H3c-1.65,0-3-1.35-3-3V8.75c0-1.65,1.35-3,3-3c0.55,0,1,0.45,1,1s-0.45,1-1,1c-0.55,0-1,0.45-1,1v19.5
		c0,0.55,0.45,1,1,1h26c0.55,0,1-0.45,1-1V8.75c0-0.55-0.45-1-1-1c-0.55,0-1-0.45-1-1s0.45-1,1-1c1.65,0,3,1.35,3,3v19.5
		C32,29.9,30.65,31.25,29,31.25z"
    />
    <path d="M7.5,11.75c-0.55,0-1-0.45-1-1v-9c0-0.55,0.45-1,1-1s1,0.45,1,1v9C8.5,11.3,8.05,11.75,7.5,11.75z" />
    <path d="M24.5,11.75c-0.55,0-1-0.45-1-1v-9c0-0.55,0.45-1,1-1s1,0.45,1,1v9C25.5,11.3,25.05,11.75,24.5,11.75z" />
    <path d="M21,7.75H11c-0.55,0-1-0.45-1-1s0.45-1,1-1h10c0.55,0,1,0.45,1,1S21.55,7.75,21,7.75z" />
    <circle cx="7.5" cy="17.25" r="1" />
    <path
        d="M7.5,18.75c-0.83,0-1.5-0.67-1.5-1.5s0.67-1.5,1.5-1.5S9,16.42,9,17.25S8.33,18.75,7.5,18.75z M7.5,16.75
		c-0.28,0-0.5,0.22-0.5,0.5c0,0.28,0.22,0.5,0.5,0.5S8,17.53,8,17.25C8,16.97,7.78,16.75,7.5,16.75z"
    />
    <circle cx="13.17" cy="17.25" r="1" />
    <path
        d="M13.17,18.75c-0.83,0-1.5-0.67-1.5-1.5s0.67-1.5,1.5-1.5s1.5,0.67,1.5,1.5S13.99,18.75,13.17,18.75z M13.17,16.75
		c-0.28,0-0.5,0.22-0.5,0.5c0,0.28,0.22,0.5,0.5,0.5s0.5-0.22,0.5-0.5C13.67,16.97,13.44,16.75,13.17,16.75z"
    />
    <circle cx="18.83" cy="17.25" r="1" />
    <path
        d="M18.83,18.75c-0.83,0-1.5-0.67-1.5-1.5s0.67-1.5,1.5-1.5s1.5,0.67,1.5,1.5S19.66,18.75,18.83,18.75z M18.83,16.75
		c-0.28,0-0.5,0.22-0.5,0.5c0,0.28,0.22,0.5,0.5,0.5s0.5-0.22,0.5-0.5C19.33,16.97,19.11,16.75,18.83,16.75z"
    />
    <circle cx="24.5" cy="17.25" r="1" />
    <path
        d="M24.5,18.75c-0.83,0-1.5-0.67-1.5-1.5s0.67-1.5,1.5-1.5s1.5,0.67,1.5,1.5S25.33,18.75,24.5,18.75z M24.5,16.75
		c-0.28,0-0.5,0.22-0.5,0.5c0,0.28,0.22,0.5,0.5,0.5s0.5-0.22,0.5-0.5C25,16.97,24.78,16.75,24.5,16.75z"
    />
    <circle cx="7.5" cy="24.25" r="1" />
    <path
        d="M7.5,25.75c-0.83,0-1.5-0.67-1.5-1.5s0.67-1.5,1.5-1.5S9,23.42,9,24.25S8.33,25.75,7.5,25.75z M7.5,23.75
		c-0.28,0-0.5,0.22-0.5,0.5s0.22,0.5,0.5,0.5S8,24.53,8,24.25S7.78,23.75,7.5,23.75z"
    />
    <circle cx="13.17" cy="24.25" r="1" />
    <path
        d="M13.17,25.75c-0.83,0-1.5-0.67-1.5-1.5s0.67-1.5,1.5-1.5s1.5,0.67,1.5,1.5S13.99,25.75,13.17,25.75z M13.17,23.75
		c-0.28,0-0.5,0.22-0.5,0.5s0.22,0.5,0.5,0.5s0.5-0.22,0.5-0.5S13.44,23.75,13.17,23.75z"
    />
    <circle cx="18.83" cy="24.25" r="1" />
    <path
        d="M18.83,25.75c-0.83,0-1.5-0.67-1.5-1.5s0.67-1.5,1.5-1.5s1.5,0.67,1.5,1.5S19.66,25.75,18.83,25.75z M18.83,23.75
		c-0.28,0-0.5,0.22-0.5,0.5s0.22,0.5,0.5,0.5s0.5-0.22,0.5-0.5S19.11,23.75,18.83,23.75z"
    />
    <circle cx="24.5" cy="24.25" r="1" />
    <path
        d="M24.5,25.75c-0.83,0-1.5-0.67-1.5-1.5s0.67-1.5,1.5-1.5s1.5,0.67,1.5,1.5S25.33,25.75,24.5,25.75z M24.5,23.75
		c-0.28,0-0.5,0.22-0.5,0.5s0.22,0.5,0.5,0.5s0.5-0.22,0.5-0.5S24.78,23.75,24.5,23.75z"
    />
</svg>
