<svg xmlns="http://www.w3.org/2000/svg" viewBox="0 0 40 32.01">
    <path
        fill="none"
        stroke="#000000"
        stroke-linecap="round"
        stroke-linejoin="round"
        stroke-width="2"
        d="M8.51,20.29C4.35,14.3,3.82,8.09,7,2.84"
        transform="translate(0 0)"
    />
    <path
        fill="none"
        stroke="#000000"
        stroke-linecap="round"
        stroke-linejoin="round"
        stroke-width="2"
        d="M34.55,28.22C30,32.8,20.65,31.72,13.6,25.85"
        transform="translate(0 0)"
    />
    <path
        fill="none"
        stroke="#000000"
        stroke-linecap="round"
        stroke-linejoin="round"
        stroke-width="2"
        d="M27.43,26.2c-1.58,1.58-6.74-1-11.53-5.77S8.53,10.52,10.12,8.94"
        transform="translate(0 0)"
    />
    <path
        fill="none"
        stroke="#000000"
        stroke-linecap="round"
        stroke-linejoin="round"
        stroke-width="2"
        d="M10.13,8.92c2.3,2,5,2.61,6.33,1.32s.59-4.44-1.8-6.82S9.21.23,7.82,1.62A10.34,10.34,0,0,0,6,4.87"
        transform="translate(0 0)"
    />
    <path
        fill="none"
        stroke="#000000"
        stroke-linecap="round"
        stroke-linejoin="round"
        stroke-width="2"
        d="M34.55,28.22c1-1,.51-4.47-1.88-6.85s-5.45-3.19-6.84-1.8-.63,4.28,1.61,6.63"
        transform="translate(0 0)"
    />
    <path fill="#fff" d="M26.08,10.6a1.06,1.06,0,0,1,0,1.51,1.07,1.07,0,1,1,0-1.51" transform="translate(0 0)" />
    <path
        fill="none"
        stroke="#000000"
        stroke-miterlimit="10"
        stroke-width="1"
        d="M26.08,10.6a1.06,1.06,0,0,1,0,1.51,1.07,1.07,0,1,1,0-1.51Z"
        transform="translate(0 0)"
    />
    <path fill="#fff" d="M30.63,6.07a1.07,1.07,0,0,1-1.52,1.51,1.06,1.06,0,0,1,0-1.51,1.07,1.07,0,0,1,1.52,0" transform="translate(0 0)" />
    <path
        fill="none"
        stroke="#000000"
        stroke-miterlimit="10"
        stroke-width="1"
        d="M30.63,6.07a1.07,1.07,0,0,1-1.52,1.51,1.06,1.06,0,0,1,0-1.51A1.07,1.07,0,0,1,30.63,6.07Z"
        transform="translate(0 0)"
    />
    <path fill="#fff" d="M35.17,1.54a1.07,1.07,0,1,1-1.51,0,1.06,1.06,0,0,1,1.51,0" transform="translate(0 0)" />
    <path
        fill="none"
        stroke="#000000"
        stroke-miterlimit="10"
        stroke-width="1"
        d="M35.17,1.54a1.07,1.07,0,1,1-1.51,0A1.06,1.06,0,0,1,35.17,1.54Z"
        transform="translate(0 0)"
    />
</svg>
