<svg xmlns="http://www.w3.org/2000/svg" viewBox="0 -1 32 34">
    <g>
        <path
            d="M11,26.11c-0.51,0-1.03-0.13-1.49-0.4C8.56,25.16,8,24.19,8,23.1V9.39c0-0.55,0.45-1,1-1s1,0.45,1,1V23.1
			c0,0.52,0.35,0.78,0.5,0.87c0.15,0.09,0.55,0.26,1,0l12.19-7.1c0.45-0.26,0.5-0.69,0.5-0.86s-0.05-0.6-0.5-0.86l-9.52-5.55
			c-0.48-0.28-0.64-0.89-0.36-1.37c0.28-0.48,0.89-0.64,1.37-0.36l9.52,5.55c0.93,0.54,1.49,1.51,1.49,2.59
			c0,1.08-0.56,2.05-1.49,2.59l-12.19,7.1C12.04,25.97,11.52,26.11,11,26.11z"
        />
        <path
            d="M29.13,32H2.88C1.29,32,0,30.71,0,29.13V2.88C0,1.29,1.29,0,2.88,0h1.07c0.55,0,1,0.45,1,1s-0.45,1-1,1H2.88
			C2.39,2,2,2.39,2,2.88v26.25C2,29.61,2.39,30,2.88,30h26.25c0.48,0,0.88-0.39,0.88-0.88V2.88C30,2.39,29.61,2,29.13,2h-7.59
			c-0.55,0-1-0.45-1-1s0.45-1,1-1h7.59C30.71,0,32,1.29,32,2.88v26.25C32,30.71,30.71,32,29.13,32z"
        />
        <path
            d="M9,13.69c-0.55,0-1-0.45-1-1V3c0-1.65,1.47-3,3.27-3h12.47c0.55,0,1,0.45,1,1s-0.45,1-1,1H11.27C10.58,2,10,2.46,10,3v9.69
			C10,13.24,9.55,13.69,9,13.69z"
        />
    </g>
</svg>
