<svg xmlns="http://www.w3.org/2000/svg" viewBox="0 -1 32 34">
    <g>
        <path
            d="M12.88,22.64c-0.41,0-0.81-0.11-1.18-0.32c-0.75-0.43-1.19-1.2-1.19-2.06v-9.44c0-0.55,0.45-1,1-1s1,0.45,1,1v9.44
		c0,0.19,0.12,0.29,0.19,0.33c0.07,0.04,0.21,0.09,0.38,0l8.39-4.89c0.16-0.09,0.19-0.24,0.19-0.33c0-0.08-0.02-0.23-0.19-0.32
		l-6.56-3.82c-0.48-0.28-0.64-0.89-0.36-1.37c0.28-0.48,0.89-0.64,1.37-0.36l6.56,3.82c0.74,0.43,1.18,1.2,1.18,2.05
		c0,0.85-0.44,1.62-1.18,2.05l-8.39,4.89C13.7,22.53,13.29,22.64,12.88,22.64z"
        />
        <path
            d="M29.13,32H2.88C1.29,32,0,30.71,0,29.13V2.88C0,1.29,1.29,0,2.88,0h1.07c0.55,0,1,0.45,1,1s-0.45,1-1,1H2.88
		C2.39,2,2,2.39,2,2.88v26.25C2,29.61,2.39,30,2.88,30h26.25c0.48,0,0.88-0.39,0.88-0.88V2.88C30,2.39,29.61,2,29.13,2h-7.59
		c-0.55,0-1-0.45-1-1s0.45-1,1-1h7.59C30.71,0,32,1.29,32,2.88v26.25C32,30.71,30.71,32,29.13,32z"
        />
        <path
            d="M11.5,13.69c-0.55,0-1-0.45-1-1V3c0-1.65,1.47-3,3.27-3h12.47c0.55,0,1,0.45,1,1s-0.45,1-1,1H13.77
		c-0.69,0-1.27,0.46-1.27,1v9.69C12.5,13.24,12.05,13.69,11.5,13.69z"
        />
        <circle cx="5.2" cy="5.5" r="1" />
        <circle cx="5.2" cy="10.75" r="1" />
        <circle cx="5.2" cy="21.25" r="1" />
        <circle cx="5.2" cy="16" r="1" />
        <circle cx="5.2" cy="26.5" r="1" />
        <circle cx="27.2" cy="5.5" r="1" />
        <circle cx="27.2" cy="10.75" r="1" />
        <circle cx="27.2" cy="21.25" r="1" />
        <circle cx="27.2" cy="16" r="1" />
        <circle cx="27.2" cy="26.5" r="1" />
    </g>
</svg>
