<svg xmlns="http://www.w3.org/2000/svg" viewBox="0 0 40 32">
    <path
        fill="none"
        stroke="#000000"
        stroke-linecap="round"
        stroke-linejoin="round"
        stroke-width="2"
        d="M12.45,21c-1.94,2-3.1,4.22-3.1,6.14h0a43.24,43.24,0,0,0,14.76,2.76c9.39,0,14.76-2.76,14.76-2.76,0-3.63-4.15-8.46-9.92-10.31l.53-.76c1.06-1.41,2.68-4.3,2.68-6.22a8.17,8.17,0,0,0-8-8.3,8.18,8.18,0,0,0-8,8.3,8.29,8.29,0,0,0,5.23,7.77"
        transform="translate(0.04)"
    />
    <path
        fill="none"
        stroke="#000000"
        stroke-linecap="round"
        stroke-linejoin="round"
        stroke-width="2"
        d="M12.31,20.41A19.69,19.69,0,0,1,7.89,21,16.21,16.21,0,0,1,1,19.66c0-1.7,1.93-4,4.63-4.82l-.24-.36a6.15,6.15,0,0,1-1.26-2.91A3.83,3.83,0,0,1,7.89,7.69a3.83,3.83,0,0,1,3.76,3.88A3.88,3.88,0,0,1,9.2,15.21"
        transform="translate(0.04)"
    />
</svg>
