<svg xmlns="http://www.w3.org/2000/svg" viewBox="0 -1 32 34">
    <g>
        <path
            d="M18,26.5h-4c-4.41,0-8-3.59-8-8V15c0-0.55,0.45-1,1-1s1,0.45,1,1v3.5c0,3.31,2.69,6,6,6h4c3.31,0,6-2.69,6-6V15
			c0-0.55,0.45-1,1-1s1,0.45,1,1v3.5C26,22.91,22.41,26.5,18,26.5z"
        />
        <path
            d="M17,23h-2c-3.03,0-5.5-2.47-5.5-5.5v-12C9.5,2.47,11.97,0,15,0h2c3.03,0,5.5,2.47,5.5,5.5v5.22c0,0.55-0.45,1-1,1
			s-1-0.45-1-1V5.5C20.5,3.57,18.93,2,17,2h-2c-1.93,0-3.5,1.57-3.5,3.5v12c0,1.93,1.57,3.5,3.5,3.5h2c1.93,0,3.5-1.57,3.5-3.5V15
			c0-0.55,0.45-1,1-1H25c0.55,0,1,0.45,1,1s-0.45,1-1,1h-2.5v1.5C22.5,20.53,20.03,23,17,23z"
        />
        <path d="M16,32c-0.55,0-1-0.45-1-1v-5c0-0.55,0.45-1,1-1s1,0.45,1,1v5C17,31.55,16.55,32,16,32z" />
        <path d="M22,32H10c-0.55,0-1-0.45-1-1s0.45-1,1-1h12c0.55,0,1,0.45,1,1S22.55,32,22,32z" />
    </g>
</svg>
