<svg version="1.1" id="Layer_1" xmlns="http://www.w3.org/2000/svg" viewBox="0 -1 32 34">
    <style type="text/css">
        .st0 {
            fill: none;
            stroke: #000000;
            stroke-width: 2;
            stroke-linecap: round;
            stroke-linejoin: round;
            stroke-miterlimit: 10;
        }
    </style>
    <g>
        <path class="st0" d="M30.94,1.1v5.37h-30V1.1" />
        <path
            class="st0"
            d="M19.38,15.73L19.38,15.73c0.02-0.03,0.04-0.05,0.06-0.08l0.55-0.55c0.61-0.61,1.6-0.61,2.21,0l0.39,0.39
			c0.61,0.61,0.61,1.6,0,2.21l-0.4,0.4c-0.11,0.11-0.13,0.26-0.06,0.4c0.2,0.38,0.37,0.79,0.5,1.21c0.04,0.14,0.17,0.24,0.32,0.24
			c0.34,0,0.91,0,0.91,0c0.67,0,1.22,0.55,1.22,1.22v1.22c0,0.67-0.55,1.22-1.22,1.22c0,0-0.57,0-0.91,0c-0.15,0-0.27,0.1-0.32,0.24
			c-0.13,0.42-0.3,0.83-0.5,1.21c-0.07,0.13-0.05,0.29,0.05,0.39c0.24,0.24,0.64,0.64,0.64,0.64c0.48,0.48,0.48,1.25,0,1.73
			l-0.86,0.86c-0.48,0.48-1.25,0.48-1.73,0c0,0-0.4-0.4-0.64-0.64c-0.11-0.11-0.26-0.12-0.39-0.05c-0.45,0.24-0.94,0.43-1.44,0.57
			l-0.01,0v0.82c0,0.86-0.7,1.56-1.56,1.56h-0.89c-0.67,0-1.22-0.55-1.22-1.22c0,0,0-0.57,0-0.91c0-0.15-0.1-0.27-0.24-0.32
			c-0.42-0.13-0.83-0.3-1.21-0.5c-0.13-0.07-0.29-0.05-0.4,0.06l-0.4,0.4c-0.61,0.61-1.6,0.61-2.21,0l-0.63-0.63
			c-0.48-0.48-0.48-1.25,0-1.73c0,0,0.4-0.4,0.64-0.64c0.11-0.11,0.12-0.26,0.05-0.39c-0.24-0.45-0.43-0.94-0.57-1.44l0-0.01H8.29
			c-0.86,0-1.56-0.7-1.56-1.56v-0.89c0-0.67,0.55-1.22,1.22-1.22c0,0,0.57,0,0.91,0c0.15,0,0.27-0.1,0.32-0.24
			c0.13-0.42,0.3-0.83,0.5-1.21c0.07-0.13,0.05-0.29-0.06-0.4l-0.4-0.4c-0.61-0.61-0.61-1.6,0-2.21l0.63-0.63
			c0.48-0.48,1.25-0.48,1.73,0c0,0,0.4,0.4,0.64,0.64c0.11,0.11,0.26,0.12,0.39,0.05c0.45-0.24,0.94-0.43,1.44-0.57l0.01,0v-0.82
			c0-0.86,0.7-1.56,1.56-1.56h0.31l-0.04-0.66V6.47"
        />
        <circle class="st0" cx="16" cy="21.79" r="1" />
    </g>
</svg>
