<svg xmlns="http://www.w3.org/2000/svg" viewBox="0 0 40 32">
    <line
        x1="16.98"
        x2="10.37"
        y1="17.44"
        y2="17.44"
        fill="none"
        stroke="#000000"
        stroke-linecap="round"
        stroke-linejoin="round"
        stroke-width="2"
    />
    <line
        x1="20.29"
        x2="30.22"
        y1="26.27"
        y2="17.44"
        fill="none"
        stroke="#000000"
        stroke-linecap="round"
        stroke-linejoin="round"
        stroke-width="2"
    />
    <line
        x1="10.37"
        x2="20.29"
        y1="17.44"
        y2="26.27"
        fill="none"
        stroke="#000000"
        stroke-linecap="round"
        stroke-linejoin="round"
        stroke-width="2"
    />
    <path
        fill="none"
        stroke="#000000"
        stroke-linecap="round"
        stroke-linejoin="round"
        stroke-width="2"
        d="M23.6,1H33a2,2,0,0,1,2,2V29a2,2,0,0,1-2,2H7a2,2,0,0,1-2-2V3A2,2,0,0,1,7,1H7.8"
        transform="translate(0 0)"
    />
    <polyline
        fill="none"
        stroke="#000000"
        stroke-linecap="round"
        stroke-linejoin="round"
        stroke-width="2"
        points="23.6 1 23.6 17 23.6 17.45 30.22 17.45"
    />
    <polyline
        fill="none"
        stroke="#000000"
        stroke-linecap="round"
        stroke-linejoin="round"
        stroke-width="2"
        points="17 1 17 10 16.98 9.73 16.98 17.45"
    />
</svg>
