<svg xmlns="http://www.w3.org/2000/svg" viewBox="0 0 40 32">
    <path
        fill="none"
        stroke="#000000"
        stroke-linecap="round"
        stroke-linejoin="round"
        stroke-width="2"
        d="M31.69,8A3.54,3.54,0,0,0,35,4.5a3.62,3.62,0,0,0-7.23,0,.57.57,0,0,0,0,.13"
        transform="translate(0 0.02)"
    />
    <path
        fill="none"
        stroke="#000000"
        stroke-linecap="round"
        stroke-linejoin="round"
        stroke-width="2"
        d="M28,26.12a3.51,3.51,0,0,0-.29,1.38,3.62,3.62,0,1,0,4.43-3.41"
        transform="translate(0 0.02)"
    />
    <path
        fill="none"
        stroke="#000000"
        stroke-linecap="round"
        stroke-linejoin="round"
        stroke-width="2"
        d="M11.14,13a3.67,3.67,0,0,0-2.49-1,3.5,3.5,0,1,0,0,7,3.68,3.68,0,0,0,2.48-1"
        transform="translate(0 0.02)"
    />
    <line
        x1="11.23"
        x2="27.74"
        y1="13.02"
        y2="5.02"
        fill="none"
        stroke="#000000"
        stroke-linecap="round"
        stroke-linejoin="round"
        stroke-width="2"
    />
    <line
        x1="11.23"
        x2="27.74"
        y1="18.02"
        y2="26.02"
        fill="none"
        stroke="#000000"
        stroke-linecap="round"
        stroke-linejoin="round"
        stroke-width="2"
    />
    <line
        x1="15.35"
        x2="31.87"
        y1="16.02"
        y2="24.02"
        fill="none"
        stroke="#000000"
        stroke-linecap="round"
        stroke-linejoin="round"
        stroke-width="2"
    />
    <line
        x1="22.58"
        x2="30.84"
        y1="12.02"
        y2="8.02"
        fill="none"
        stroke="#000000"
        stroke-linecap="round"
        stroke-linejoin="round"
        stroke-width="2"
    />
</svg>
