<svg xmlns="http://www.w3.org/2000/svg" viewBox="0 -1 32 34">
    <g>
        <path
            d="M16,32C8.5,32,2.4,25.9,2.4,18.4c0-4.6,2.3-8.8,6.1-11.3c0.5-0.3,1.1-0.2,1.4,0.3c0.3,0.5,0.2,1.1-0.3,1.4
		c-3.3,2.2-5.2,5.8-5.2,9.7C4.4,24.8,9.6,30,16,30c6.4,0,11.6-5.2,11.6-11.6C27.6,12,22.4,6.8,16,6.8c-0.6,0-1-0.4-1-1s0.4-1,1-1
		c7.5,0,13.6,6.1,13.6,13.6C29.6,25.9,23.5,32,16,32z"
        />
        <path d="M16,21.6c-0.6,0-1-0.4-1-1V1c0-0.6,0.4-1,1-1s1,0.4,1,1v19.6C17,21.1,16.6,21.6,16,21.6z" />
    </g>
</svg>
