<svg xmlns="http://www.w3.org/2000/svg" viewBox="0 -1 32 34">
    <g>
        <path
            d="M18.2,15.7c0.3,0,0.7-0.1,0.9-0.4c0.2-0.2,0.4-0.6,0.4-0.9c0-0.7-0.6-1.3-1.3-1.3c0,0,0,0,0,0c-0.7,0-1.3,0.6-1.3,1.3
			C16.9,15.1,17.5,15.7,18.2,15.7C18.2,15.7,18.2,15.7,18.2,15.7z"
        />
        <path
            d="M9.7,15.7c0.3,0,0.7-0.1,0.9-0.4c0.2-0.2,0.4-0.6,0.4-0.9c0-0.3-0.1-0.7-0.4-0.9c-0.2-0.2-0.6-0.4-0.9-0.4
			c-0.7,0-1.3,0.6-1.3,1.3C8.4,15.1,9,15.7,9.7,15.7C9.7,15.7,9.7,15.7,9.7,15.7z"
        />
        <path
            d="M14,15.7c0.7,0,1.3-0.6,1.3-1.3v0c0-0.3-0.1-0.7-0.4-0.9c-0.2-0.2-0.6-0.4-0.9-0.4c-0.3,0-0.7,0.1-0.9,0.4
			c-0.2,0.2-0.4,0.6-0.4,0.9C12.7,15.1,13.2,15.7,14,15.7C13.9,15.7,13.9,15.7,14,15.7z"
        />
        <path
            d="M31.1,1c-0.6-0.6-1.3-0.9-2.1-0.9L3.1,0c0,0,0,0,0,0c-1.6,0-3,1.3-3,3l0,2.5l0,1.5c0,0.8,0.3,1.5,0.9,2.1S2.3,10,3.1,10
			l2.7,0v0l9.7,0v0l7.8,0c0.2,0,0.3,0.1,0.4,0.2c0.1,0.1,0.2,0.3,0.2,0.4l0,7.1c0,0.3-0.3,0.6-0.6,0.6c0,0,0,0,0,0l-11.4,0
			c-0.1,0-0.3,0-0.4,0.1l-0.9,0.4c-0.1,0-0.1,0.1-0.2,0.1l-4.6,3l-0.2-2.3c0-0.2-0.1-0.4-0.2-0.5c-0.1-0.5-0.5-0.8-1-0.8l-1.8,0
			c-0.2,0-0.3-0.1-0.4-0.2C2.1,18,2,17.9,2,17.7l0-3.2c0-0.6-0.4-1-1-1c0,0,0,0,0,0c-0.6,0-1,0.4-1,1l0,3.2c0,0.7,0.3,1.3,0.8,1.8
			s1.1,0.8,1.8,0.8l1,0l0.2,3.4c0,0.4,0.2,0.7,0.6,0.8c0.1,0.1,0.3,0.1,0.4,0.1c0.2,0,0.4-0.1,0.5-0.2l6-3.9l0.7-0.3l11.1,0
			c0,0,0,0,0,0c1.4,0,2.6-1.2,2.6-2.6l0-7.1c0-0.7-0.3-1.3-0.8-1.8c-0.5-0.5-1.1-0.8-1.8-0.8L10.7,8L3.1,8C2.8,8,2.6,7.9,2.4,7.7
			C2.2,7.5,2.1,7.2,2.1,7l0-1.5l0-2.5c0-0.5,0.4-1,1-1c0,0,0,0,0,0L29,2.1c0.3,0,0.5,0.1,0.7,0.3C29.9,2.6,30,2.8,30,3.1L29.9,29
			c0,0.5-0.4,1-1,1c0,0,0,0,0,0L3,29.9c-0.5,0-1-0.5-1-1l0-3c0-0.6-0.4-1-1-1c0,0,0,0,0,0c-0.6,0-1,0.4-1,1l0,3c0,1.6,1.3,3,3,3
			L28.9,32c0,0,0,0,0,0c1.6,0,3-1.3,3-3L32,3.1C32,2.3,31.7,1.6,31.1,1z"
        />
    </g>
</svg>
