<svg xmlns="http://www.w3.org/2000/svg" viewBox="0 -1 32 34">
    <style type="text/css">
        .st0 {
            fill: none;
            stroke: #000000;
            stroke-width: 2;
            stroke-linecap: round;
            stroke-linejoin: round;
            stroke-miterlimit: 10;
        }
    </style>
    <g>
        <path class="st0" d="M21.3,13.3H3c-1.1,0-2-0.9-2-2V3c0-1.1,0.9-2,2-2h18.3c1.1,0,2,0.9,2,2v5.3" />
        <path class="st0" d="M10.7,13.3H29c1.1,0,2,0.9,2,2V29c0,1.1-0.9,2-2,2H10.7c-1.1,0-2-0.9-2-2V18.1" />
        <circle class="st0" cx="6.1" cy="7.1" r="0.5" />
        <circle class="st0" cx="17.6" cy="7.1" r="0.5" />
        <circle class="st0" cx="11.9" cy="7.1" r="0.5" />
        <line class="st0" x1="12.8" y1="18.1" x2="26.9" y2="18.1" />
        <line class="st0" x1="12.8" y1="22.1" x2="26.9" y2="22.1" />
        <line class="st0" x1="12.8" y1="26.2" x2="26.9" y2="26.2" />
    </g>
</svg>
