<svg xmlns="http://www.w3.org/2000/svg" viewBox="0 -1 32 34">
    <style type="text/css">
        .st0 {
            fill: none;
            stroke: #000000;
            stroke-width: 2;
            stroke-linecap: round;
            stroke-linejoin: round;
            stroke-miterlimit: 10;
        }
    </style>
    <g>
        <path class="st0" d="M10.7,18.7H29c1.1,0,2,0.9,2,2V29c0,1.1-0.9,2-2,2H10.7c-1.1,0-2-0.9-2-2v-5.3" />
        <path class="st0" d="M21.3,18.7H3c-1.1,0-2-0.9-2-2V3c0-1.1,0.9-2,2-2h18.3c1.1,0,2,0.9,2,2v10.9" />
        <circle class="st0" cx="25.9" cy="24.9" r="0.5" />
        <circle class="st0" cx="14.4" cy="24.9" r="0.5" />
        <circle class="st0" cx="20.1" cy="24.9" r="0.5" />
        <line class="st0" x1="19.2" y1="13.9" x2="5.1" y2="13.9" />
        <line class="st0" x1="19.2" y1="9.9" x2="5.1" y2="9.9" />
        <line class="st0" x1="19.2" y1="5.8" x2="5.1" y2="5.8" />
    </g>
</svg>
