<svg xmlns="http://www.w3.org/2000/svg" viewBox="0 0 40 32">
    <path
        fill="none"
        stroke="#000000"
        stroke-linecap="round"
        stroke-linejoin="round"
        stroke-width="2"
        d="M14.67,13.19v-2a2,2,0,0,1,2-2H33a2,2,0,0,1,2,2v9.15a2,2,0,0,1-2,2H16.7a2,2,0,0,1-2-2v-2"
    />
    <path fill="none" stroke="#000000" stroke-linecap="round" stroke-linejoin="round" stroke-width="2" d="M5,1H7.56a2,2,0,0,1,2,2v8.61" />
    <path fill="none" stroke="#000000" stroke-linecap="round" stroke-linejoin="round" stroke-width="2" d="M5,31H7.56a2,2,0,0,0,2-2V20.34" />
    <line
        x1="9.59"
        x2="14.67"
        y1="13.22"
        y2="13.22"
        fill="none"
        stroke="#000000"
        stroke-linecap="round"
        stroke-linejoin="round"
        stroke-width="2"
    />
    <line
        x1="9.59"
        x2="14.67"
        y1="18.3"
        y2="18.3"
        fill="none"
        stroke="#000000"
        stroke-linecap="round"
        stroke-linejoin="round"
        stroke-width="2"
    />
    <line
        x1="9.59"
        x2="9.59"
        y1="18.3"
        y2="23.39"
        fill="none"
        stroke="#000000"
        stroke-linecap="round"
        stroke-linejoin="round"
        stroke-width="2"
    />
    <line
        x1="9.59"
        x2="9.59"
        y1="8.13"
        y2="13.22"
        fill="none"
        stroke="#000000"
        stroke-linecap="round"
        stroke-linejoin="round"
        stroke-width="2"
    />
</svg>
