<?xml version="1.0" encoding="utf-8" ?>
<!-- Generator: Adobe Illustrator 24.0.1, SVG Export Plug-In . SVG Version: 6.00 Build 0)  -->
<svg
    version="1.1"
    id="Layer_1"
    xmlns="http://www.w3.org/2000/svg"
    xmlns:xlink="http://www.w3.org/1999/xlink"
    x="0px"
    y="0px"
    viewBox="0 0 32 32"
    style="enable-background:new 0 0 32 32;"
    xml:space="preserve"
>
<g>
	<path
            d="M16.01,0C16,0,16,0,16.01,0c-0.27,0-0.52,0.1-0.71,0.29C15.11,0.48,15,0.73,15,1v9.94v5.29V18c0,0.55,0.45,1,1,1
		s1-0.45,1-1v-1.76v-5.29V2.04C24.25,2.55,30,8.63,30,16c0,7.72-6.28,14-14,14S2,23.72,2,16c0-5.06,2.74-9.74,7.15-12.21
		C9.64,3.51,9.81,2.9,9.54,2.42C9.27,1.94,8.66,1.77,8.17,2.04C3.13,4.87,0,10.22,0,16c0,8.82,7.18,16,16,16s16-7.18,16-16
		C32,7.23,24.86,0.05,16.01,0z"
        />
	<circle cx="16" cy="24.25" r="1.75" />
</g>
</svg>
