<svg xmlns="http://www.w3.org/2000/svg" viewBox="0 -1 32 34">
<style type="text/css">
	.st0{fill:none;stroke:#000000;stroke-width:2;stroke-linecap:round;stroke-linejoin:round;stroke-miterlimit:10;}
	.st1{stroke:#000000;stroke-miterlimit:10;}
</style>
<g>
	<path class="st0" d="M31,23.25V29c0,1.1-0.9,2-2,2H3c-1.1,0-2-0.9-2-2v-5.75" />
	<circle class="st1" cx="8.18" cy="23.23" r="1" />
	<circle class="st1" cx="16" cy="23.23" r="1" />
	<circle class="st1" cx="23.82" cy="23.23" r="1" />
	<line class="st0" x1="19.81" y1="8" x2="12.19" y2="8" />
	<line class="st0" x1="16" y1="11.81" x2="16" y2="4.19" />
	<path class="st0" d="M21,15H11c-1.1,0-2-0.9-2-2V3c0-1.1,0.9-2,2-2h10c1.1,0,2,0.9,2,2v10C23,14.1,22.1,15,21,15z" />
</g>
</svg>
