<svg xmlns="http://www.w3.org/2000/svg" viewBox="0 0 40 32">
    <path
        fill="none"
        stroke="#000000"
        stroke-linecap="round"
        stroke-linejoin="round"
        stroke-width="2"
        d="M12.18,4.65a1.47,1.47,0,0,0-2.06,0L8.57,6.22a1.47,1.47,0,0,0,0,2.08l5.21,5.14"
    />
    <line
        x1="17.44"
        x2="17.44"
        y1="9.78"
        y2="9.78"
        fill="none"
        stroke="#000000"
        stroke-linecap="round"
        stroke-linejoin="round"
        stroke-width="2"
    />
    <path
        fill="none"
        stroke="#000000"
        stroke-linecap="round"
        stroke-linejoin="round"
        stroke-width="2"
        d="M22.56,9.78V2.46A1.46,1.46,0,0,0,21.1,1H18.9a1.46,1.46,0,0,0-1.46,1.46V9.78"
    />
    <path
        fill="none"
        stroke="#000000"
        stroke-linecap="round"
        stroke-linejoin="round"
        stroke-width="2"
        d="M13.78,18.56H6.46A1.46,1.46,0,0,1,5,17.1V14.9a1.46,1.46,0,0,1,1.46-1.46h7.32"
    />
    <path
        fill="none"
        stroke="#000000"
        stroke-linecap="round"
        stroke-linejoin="round"
        stroke-width="2"
        d="M22.56,22.22v7.32A1.46,1.46,0,0,1,21.1,31H18.9a1.46,1.46,0,0,1-1.46-1.46V22.22"
    />
    <path
        fill="none"
        stroke="#000000"
        stroke-linecap="round"
        stroke-linejoin="round"
        stroke-width="2"
        d="M26.22,18.56h7.32A1.46,1.46,0,0,0,35,17.1V14.9a1.46,1.46,0,0,0-1.46-1.46H26.22"
    />
    <path
        fill="none"
        stroke="#000000"
        stroke-linecap="round"
        stroke-linejoin="round"
        stroke-width="2"
        d="M22.56,9.78l5.2-5.17a1.45,1.45,0,0,1,2.06,0l1.56,1.55a1.48,1.48,0,0,1,0,2.07l-5.17,5.2"
    />
    <path
        fill="none"
        stroke="#000000"
        stroke-linecap="round"
        stroke-linejoin="round"
        stroke-width="2"
        d="M17.44,22.22l-5.32,5.09a1.46,1.46,0,0,1-2,0L8.52,25.73a1.47,1.47,0,0,1,0-2.09l5.25-5.08"
    />
    <path
        fill="none"
        stroke="#000000"
        stroke-linecap="round"
        stroke-linejoin="round"
        stroke-width="2"
        d="M22.56,22.22l5.16,5.2a1.46,1.46,0,0,0,2.07,0l1.56-1.56a1.45,1.45,0,0,0,0-2.05l-5.14-5.25"
    />
</svg>
