<svg version="1.1" id="Layer_1" xmlns="http://www.w3.org/2000/svg" viewBox="0 -1 32 34">
	<style type="text/css">
		.st0{fill:none;stroke:#000000;stroke-width:2;stroke-linecap:round;stroke-miterlimit:10;}
	</style>
	<path class="st0" d="M13.12,13.09c-2.3,0-4.16-1.86-4.16-4.16s1.86-4.16,4.16-4.16" />
	<path class="st0" d="M4.81,4.78c2.3,0,4.16,1.86,4.16,4.16s-1.86,4.16-4.16,4.16" />
	<path class="st0" d="M26.77,16.78c0,2.43-0.99,4.39-3.42,4.39s-3.42-1.72-3.42-4.15" />
	<path class="st0" d="M26.77,17.03c0.12,2.45,1.32,10.33-2.88,10.37c-1.86,0.02-3.77-0.61-3.77-3.04" />
	<path
        class="st0"
        d="M10.63,1H3C1.9,1,1,1.9,1,3v26c0,1.1,0.9,2,2,2h6.22c0.84,0,1.6-0.53,1.88-1.33l9.79-27.35
		C21.18,1.53,21.93,1,22.78,1H29c1.1,0,2,0.9,2,2v26c0,1.1-0.9,2-2,2h-7.63"
    />
</svg>
