<svg xmlns="http://www.w3.org/2000/svg" viewBox="0 0 40 32">
    <path
        fill="none"
        stroke="#000000"
        stroke-linecap="round"
        stroke-linejoin="round"
        stroke-width="2"
        d="M31.75,31H15.85a2.22,2.22,0,0,1-2.37-2V9a2.22,2.22,0,0,1,2.37-2H32.44a2.21,2.21,0,0,1,2.37,2V20.06"
        transform="translate(0 0)"
    />
    <path
        fill="none"
        stroke="#000000"
        stroke-linecap="round"
        stroke-linejoin="round"
        stroke-width="2"
        d="M25.47,1.34A2,2,0,0,1,26.52,3"
        transform="translate(0 0)"
    />
    <path
        fill="none"
        stroke="#000000"
        stroke-linecap="round"
        stroke-linejoin="round"
        stroke-width="2"
        d="M23,25H7.56a2.21,2.21,0,0,1-2.37-2V3A2.21,2.21,0,0,1,7.56,1H24.15a2.72,2.72,0,0,1,1.32.34"
        transform="translate(0 0)"
    />
    <path
        fill="none"
        stroke="#000000"
        stroke-linecap="round"
        stroke-linejoin="round"
        stroke-width="2"
        d="M18.22,25H32.3a2.31,2.31,0,0,1,2.51,2v2a2.31,2.31,0,0,1-2.51,2H31.11"
        transform="translate(0 0)"
    />
    <line x1="26.52" x2="26.52" y1="3.09" y2="7.09" fill="none" stroke="#000000" stroke-linecap="round" stroke-linejoin="round" stroke-width="2" />
</svg>
