<svg xmlns="http://www.w3.org/2000/svg" viewBox="0 -1 32 34">
    <style type="text/css">
        .st0 {
            fill: none;
        }
        .st1 {
            fill: none;
            stroke: #000000;
            stroke-width: 2;
            stroke-linecap: round;
            stroke-linejoin: round;
            stroke-miterlimit: 10;
        }
        .st2 {
            stroke: #000000;
            stroke-miterlimit: 10;
        }
    </style>
    <path class="st1" d="M31,23.25V29c0,1.1-0.9,2-2,2H3c-1.1,0-2-0.9-2-2v-5.75" />
    <circle class="st2" cx="16.35" cy="10.35" r="1" />
    <circle class="st2" cx="21.61" cy="10.35" r="1" />
    <circle class="st2" cx="26.88" cy="10.35" r="1" />
    <path
        class="st1"
        d="M1,18.31h8.59h0.16l-3.99,3.9c-0.69,0.68-0.7,1.8-0.03,2.49l1.23,1.26c0.68,0.69,1.8,0.7,2.49,0.03l7.18-7.03
		c-0.76-0.43-1.47-0.98-2.11-1.63c-3.74-3.82-3.68-9.95,0.14-13.7c3.82-3.74,9.95-3.68,13.7,0.14c3.74,3.82,3.68,9.95-0.14,13.7
		c-1.68,1.65-3.82,2.56-6,2.73"
    />
    <line class="st1" x1="1" y1="24.44" x2="1" y2="18.31" />
</svg>
