<svg xmlns="http://www.w3.org/2000/svg" viewBox="0 0 40 32">
    <path
        fill="none"
        stroke="#000000"
        stroke-linecap="round"
        stroke-linejoin="round"
        stroke-width="2"
        d="M28.59,14.45v5.17a4.15,4.15,0,0,1-4.14,4.14H15.14A4.15,4.15,0,0,1,11,19.62v-3.1a2.07,2.07,0,0,1,4.14,0v1a2.07,2.07,0,0,0,2.07,2.07h5.17a2.07,2.07,0,0,0,2.07-2.07V3.07A2.07,2.07,0,0,0,22.38,1H17.21a2.07,2.07,0,0,0-2.07,2.07V9.53"
    />
    <line x1="19.79" x2="19.79" y1="23.76" y2="31" fill="none" stroke="#000000" stroke-linecap="round" stroke-linejoin="round" stroke-width="2" />
    <line x1="13.59" x2="26" y1="31" y2="31" fill="none" stroke="#000000" stroke-linecap="round" stroke-linejoin="round" stroke-width="2" />
</svg>
