<svg version="1.1" id="Layer_1" xmlns="http://www.w3.org/2000/svg" viewBox="0 -1 32 34">
<g>
	<path
            d="M4.55,21.29c-0.32,0-0.63-0.15-0.82-0.43c-4.4-6.34-4.94-12.93-1.5-18.55c0.29-0.47,0.9-0.62,1.37-0.33
		c0.47,0.29,0.62,0.9,0.33,1.37c-3,4.9-2.49,10.71,1.44,16.36c0.31,0.45,0.2,1.08-0.25,1.39C4.94,21.23,4.75,21.29,4.55,21.29z"
        />
	<path
            d="M22.79,32.08c-4.46,0-9.51-1.87-13.81-5.46c-0.42-0.35-0.48-0.98-0.13-1.41c0.35-0.42,0.98-0.48,1.41-0.13
		c6.6,5.51,15.37,6.6,19.54,2.43c0.39-0.39,1.02-0.39,1.41,0s0.39,1.02,0,1.41C29.09,31.05,26.1,32.08,22.79,32.08z"
        />
	<path
            d="M22.08,27.67c-0.9,0-2.09-0.29-3.67-1.08c-2.26-1.14-4.82-3.07-7.2-5.45c-2.38-2.38-4.32-4.94-5.45-7.2
		C4.09,10.62,4.66,9,5.44,8.23c0.39-0.39,1.02-0.39,1.41,0s0.39,1.02,0,1.41c-0.23,0.23-0.39,1.24,0.69,3.4
		c1.04,2.08,2.85,4.45,5.08,6.69s4.61,4.04,6.68,5.08c2.15,1.08,3.17,0.92,3.4,0.69c0.39-0.39,1.02-0.39,1.41,0s0.39,1.02,0,1.41
		C23.71,27.32,23.07,27.67,22.08,27.67z"
        />
	<path
            d="M10.62,11.92c-1.57,0-3.43-0.77-5.12-2.25c-0.42-0.36-0.46-1-0.09-1.41C5.77,7.84,6.4,7.8,6.82,8.17
		C8.9,9.98,11,10.29,11.77,9.53c0.85-0.85,0.33-3.29-1.8-5.41C7.85,2,5.42,1.47,4.56,2.32c-0.32,0.33-1.42,2.15-1.5,2.63
		C3.03,5.5,2.54,5.92,2.01,5.88C1.45,5.85,1.03,5.36,1.06,4.81c0.06-1.04,1.61-3.43,2.08-3.9c1.81-1.81,5.43-1.02,8.24,1.8
		c1.27,1.27,2.19,2.78,2.57,4.24c0.43,1.65,0.16,3.07-0.78,4C12.52,11.6,11.63,11.92,10.62,11.92z"
        />
	<path
            d="M30.5,29.23c-0.26,0-0.51-0.1-0.71-0.29c-0.39-0.39-0.39-1.02,0-1.41c0.14-0.14,0.34-0.81,0.07-1.99
		c-0.29-1.25-1-2.51-1.94-3.46c-2.12-2.12-4.55-2.65-5.41-1.8c-0.81,0.81-0.34,3.16,1.62,5.23c0.38,0.4,0.36,1.03-0.04,1.41
		s-1.03,0.36-1.41-0.04c-2.67-2.81-3.35-6.26-1.59-8.02c1.81-1.81,5.42-1.02,8.24,1.8c2.56,2.56,3.49,6.66,1.87,8.27
		C31.02,29.13,30.76,29.23,30.5,29.23z"
        />
	<path d="M28.74,16.31c-0.55,0-1-0.45-1-1v-11h-11c-0.55,0-1-0.45-1-1s0.45-1,1-1h12c0.55,0,1,0.45,1,1v12
		C29.74,15.86,29.29,16.31,28.74,16.31z" />
</g>
</svg>
