<svg xmlns="http://www.w3.org/2000/svg" viewBox="0 -1 32 34">
<style type="text/css">
	.st0{fill:none;stroke:#000000;stroke-width:2;stroke-linecap:round;stroke-linejoin:round;stroke-miterlimit:10;}
	.st1{stroke:#000000;stroke-miterlimit:10;}
</style>
<g>
	<path class="st0" d="M31,23.25V29c0,1.1-0.9,2-2,2H3c-1.1,0-2-0.9-2-2v-5.75" />
	<circle class="st1" cx="8.18" cy="23.23" r="1" />
	<circle class="st1" cx="16" cy="14.88" r="1" />
	<circle class="st1" cx="23.82" cy="23.23" r="1" />
	<path class="st0" d="M16.68,10.18h2.03c1.1,0,2,0.9,2,2v5.41c0,1.1-0.9,2-2,2h-5.41c-1.1,0-2-0.9-2-2v-4.53" />
	<path class="st0" d="M11.29,12.85V3c0-1.1,0.9-2,2-2H29c1.1,0,2,0.9,2,2v21.23" />
</g>
</svg>
