<svg xmlns="http://www.w3.org/2000/svg" viewBox="0 0 40 32">
    <path
        fill="none"
        stroke="#000000"
        stroke-linecap="round"
        stroke-linejoin="round"
        stroke-width="2"
        d="M4.38,21.94c-1.91,2-3,4.21-3,6.12h0a41.82,41.82,0,0,0,14.47,2.75c9.21,0,14.47-2.75,14.47-2.75,0-3.62-4.07-8.42-9.72-10.26l.51-.76c1-1.41,2.63-4.29,2.63-6.2a8.08,8.08,0,0,0-7.89-8.27,8.08,8.08,0,0,0-7.89,8.27,8.25,8.25,0,0,0,5.13,7.74"
    />
    <path
        fill="none"
        stroke="#000000"
        stroke-linecap="round"
        stroke-linejoin="round"
        stroke-width="2"
        d="M38.76,26.79c0-3.61-4.07-8.42-9.72-10.26l.51-.76c1-1.4,2.63-4.29,2.63-6.2A8.08,8.08,0,0,0,24.29,1.3"
    />
</svg>
