<svg xmlns="http://www.w3.org/2000/svg" viewBox="0 -1 32 34">
	<style type="text/css">
		.st0{fill:none;stroke:#000000;stroke-width:2;stroke-linecap:round;stroke-linejoin:round;stroke-miterlimit:10;}
		.st1{fill:none;}
		.st2{fill:none;stroke:#000000;stroke-width:2;stroke-linecap:round;stroke-miterlimit:10;}
	</style>
	<g>
		<path
            class="st0"
            d="M7.81,25.07c-1.37,1.34-2.18,2.87-2.18,4.18h0.01c0,0,4.71,1.88,10.36,1.88c6.6,0,10.37-1.88,10.37-1.88
			c0-2.47-2.91-5.76-6.96-7.02l0.37-0.52c0.75-0.96,1.88-2.93,1.88-4.24c0-3.12-2.53-5.65-5.65-5.65c-3.12,0-5.65,2.53-5.65,5.65
			c0,2.43,1.53,4.49,3.67,5.3"
        />
		<polyline class="st0" points="31.04,0.97 31.04,6.34 1.04,6.34 1.04,0.97 	" />
		<line class="st2" x1="16" y1="6.34" x2="16" y2="11.82" />
	</g>
</svg>
