<svg xmlns="http://www.w3.org/2000/svg" viewBox="0 0 40 32">
    <path
        fill="none"
        stroke="#000000"
        stroke-linecap="round"
        stroke-linejoin="round"
        stroke-width="1.87"
        d="M13.28,20.89a8.79,8.79,0,0,0-2.79,5.66h0A38,38,0,0,0,23.78,29.1c8.45,0,13.28-2.55,13.28-2.55,0-3.34-3.73-7.79-8.92-9.49l.47-.71c.95-1.29,2.41-4,2.41-5.73A7.45,7.45,0,0,0,23.78,3a7.45,7.45,0,0,0-7.25,7.64,7.66,7.66,0,0,0,4.71,7.17"
    />
    <path
        fill="none"
        stroke="#000000"
        stroke-linecap="round"
        stroke-linejoin="round"
        stroke-width="1.87"
        d="M13.15,20.35a17.37,17.37,0,0,1-4,.49A14.34,14.34,0,0,1,3,19.65C3,18.09,4.7,16,7.13,15.21l-.22-.33A5.69,5.69,0,0,1,5.78,12.2,3.49,3.49,0,0,1,9.17,8.63a3.48,3.48,0,0,1,3.38,3.57,3.55,3.55,0,0,1-2.2,3.35"
    />
</svg>
